<?xml version="1.0" encoding="UTF-8" standalone="no"?>
<svg
   width="154.99944"
   height="54.000187"
   viewBox="0 0 154.99944 54.000187"
   version="1.1"
   id="svg20"
   sodipodi:docname="c1c3aa813ad0c76469cef32a5568ca1b.svg"
   xmlns:inkscape="http://www.inkscape.org/namespaces/inkscape"
   xmlns:sodipodi="http://sodipodi.sourceforge.net/DTD/sodipodi-0.dtd"
   xmlns="http://www.w3.org/2000/svg"
   xmlns:svg="http://www.w3.org/2000/svg">
  <defs
     id="defs24" />
  <sodipodi:namedview
     id="namedview22"
     pagecolor="#ffffff"
     bordercolor="#666666"
     borderopacity="1.0"
     inkscape:pageshadow="2"
     inkscape:pageopacity="0.0"
     inkscape:pagecheckerboard="0" />
  <g
     fill-rule="nonzero"
     fill="none"
     id="g18"
     transform="translate(1.7349686e-5,-6.9115423e-5)">
    <path
       d="m 17.593,24.12 c 5.729,0 9.658,4.432 9.653,9.89 v 9.333 h -5.177 v -9.33 c 0,-2.867 -1.624,-5.184 -4.482,-5.187 -2.857,-0.003 -4.486,2.312 -4.49,5.18 v 9.331 H 7.925 v -9.329 c 0.005,-5.461 3.943,-9.887 9.669,-9.887 z m 32.39,-5.656 v 24.881 h -4.83 v -2.211 a 6.69,6.69 0 0 1 -5.413,2.764 c -5.658,0 -10.248,-4.423 -10.248,-9.882 0,-5.458 4.587,-9.895 10.21,-9.895 a 7.84,7.84 0 0 1 5.107,1.897 V 18.464 Z M 39.84,39.2 a 5.181,5.181 0 0 0 5.172,-5.19 5.18,5.18 0 0 0 -5.18,-5.18 5.18,5.18 0 0 0 -5.174,5.187 5.178,5.178 0 0 0 1.516,3.67 5.162,5.162 0 0 0 3.666,1.513 z M 89.8,37.54 c 0,4.008 -3.59,6.358 -7.592,6.358 -4.002,0 -7.577,-2.35 -7.577,-6.358 h 5.177 c 0,1.59 1.277,2.005 2.414,2.005 1.136,0 2.416,-0.588 2.416,-1.797 0,-0.864 -1.139,-1.658 -2.692,-1.867 -3.621,-0.45 -7.107,-2.662 -7.107,-5.597 0,-3.794 3.38,-6.152 7.383,-6.152 4.002,0 7.371,2.35 7.371,6.358 h -5.176 c 0,-1.588 -1.07,-2.003 -2.209,-2.003 -1.139,0 -2.208,0.415 -2.208,1.659 0,1.106 2.279,1.968 4.279,2.212 2.725,0.309 5.52,2.038 5.52,5.182 z m 22.15,-3.524 v 9.33 h -4.829 V 41.03 a 6.56,6.56 0 0 1 -5.412,2.867 c -5.659,0 -10.248,-4.423 -10.248,-9.882 0,-5.458 4.584,-9.895 10.243,-9.895 5.658,0 10.245,4.434 10.245,9.895 z m -4.967,0 a 5.185,5.185 0 0 0 -3.194,-4.792 5.171,5.171 0 0 0 -5.642,1.122 5.19,5.19 0 0 0 -1.124,5.651 5.177,5.177 0 0 0 9.96,-1.98 z m 12.584,-15.552 v 5.833 h 5.174 v 4.431 h -5.174 v 5.296 a 5.178,5.178 0 0 0 1.513,3.667 5.162,5.162 0 0 0 3.661,1.516 v 4.7 h -0.69 c -5.726,0 -9.66,-4.424 -9.66,-9.883 V 18.464 Z M 62.68,43.906 c -5.682,0 -10.283,-4.423 -10.283,-9.882 0,-5.458 4.59,-9.903 10.284,-9.903 5.693,0 10.283,4.423 10.283,9.884 0,5.462 -4.59,9.901 -10.283,9.901 z m 0,-15.067 a 5.177,5.177 0 0 0 -4.832,3.152 5.19,5.19 0 0 0 1.077,5.674 5.171,5.171 0 0 0 5.65,1.156 5.185,5.185 0 0 0 3.212,-4.797 5.154,5.154 0 0 0 -1.478,-3.657 5.138,5.138 0 0 0 -3.628,-1.536 v 0.008 z M 5.954,19.847 A 2.98,2.98 0 0 1 2.977,22.827 2.98,2.98 0 0 1 0,19.848 2.974,2.974 0 0 1 5.082,17.74 c 0.558,0.558 0.872,1.317 0.872,2.108 z m -5.556,4.838 h 5.177 v 18.66 H 0.398 Z"
       fill="#4d4d4f"
       id="path2" />
    <path
       d="m 149.354,5.609 a 12.206,12.206 0 0 1 3.564,8.288 8.379,8.379 0 0 0 -0.343,-11.422 8.347,8.347 0 0 0 -11.402,-0.433 c 3.08,0.11 6.003,1.384 8.181,3.567 z"
       fill="#ffcb05"
       id="path4" />
    <path
       d="m 132.05,22.936 a 12.206,12.206 0 0 1 -3.558,-8.19 8.376,8.376 0 0 0 0.413,11.436 8.345,8.345 0 0 0 11.421,0.327 12.169,12.169 0 0 1 -8.275,-3.573 z"
       fill="#32bcad"
       id="path6" />
    <path
       d="m 128.895,14.298 c -0.146,0.147 -0.27,0.304 -0.414,0.461 0.25,6.425 5.42,11.56 11.837,11.758 0.138,-0.122 0.27,-0.239 0.409,-0.372 a 8.387,8.387 0 0 0 2.164,-8.092 8.372,8.372 0 0 0 -5.916,-5.924 8.356,8.356 0 0 0 -8.08,2.17 z"
       fill="#c6168d"
       id="path8" />
    <path
       d="m 130.522,21.066 c -0.095,-0.14 -0.176,-0.29 -0.27,-0.436 0.094,0.146 0.175,0.295 0.27,0.436 z m 0.711,0.965 c -0.089,-0.111 -0.167,-0.228 -0.251,-0.339 0.084,0.111 0.162,0.228 0.251,0.34 z m 6.49,4.114 c -0.214,-0.054 -0.43,-0.105 -0.641,-0.173 0.21,0.068 0.427,0.12 0.64,0.173 z m 2.281,0.347 c -0.227,0 -0.454,-0.027 -0.682,-0.051 0.228,0.024 0.455,0.038 0.682,0.051 z m -1.139,-0.119 z m -3.38,-1.03 c -0.181,-0.087 -0.365,-0.165 -0.541,-0.27 0.176,0.105 0.36,0.183 0.54,0.27 z m -1.088,-0.583 c -0.157,-0.094 -0.317,-0.181 -0.468,-0.27 0.151,0.089 0.316,0.173 0.468,0.27 z m -1.077,-0.731 c -0.12,-0.093 -0.24,-0.174 -0.357,-0.271 0.116,0.092 0.238,0.178 0.357,0.27 z m 3.274,1.775 c -0.2,-0.073 -0.4,-0.141 -0.6,-0.222 0.2,0.081 0.4,0.149 0.6,0.222 z"
       fill="#ed1c24"
       id="path10" />
    <path
       d="m 140.74,14.298 a 8.358,8.358 0 0 0 11.832,0 c 0.127,-0.13 0.251,-0.27 0.37,-0.398 C 152.749,7.46 147.607,2.272 141.179,2.031 a 8.161,8.161 0 0 0 -0.452,0.418 8.39,8.39 0 0 0 0.013,11.85 z"
       fill="#ec008c"
       id="path12" />
    <path
       d="m 140.74,2.438 c 0.144,-0.144 0.29,-0.271 0.439,-0.407 a 12.168,12.168 0 0 0 -9.121,3.566 12.207,12.207 0 0 0 -3.552,9.138 c 0.13,-0.152 0.27,-0.304 0.403,-0.447 a 8.356,8.356 0 0 1 11.831,0 8.39,8.39 0 0 1 0,-11.85 z m 12.178,11.47 c -0.116,0.133 -0.235,0.271 -0.36,0.39 a 8.358,8.358 0 0 1 -11.831,0 8.387,8.387 0 0 1 0,11.847 c -0.127,0.13 -0.27,0.244 -0.4,0.364 3.37,0.112 6.636,-1.18 9.022,-3.567 a 12.223,12.223 0 0 0 3.57,-9.034 z"
       fill="#ed1c24"
       id="path14" />
    <path
       d="m 2.078,53.563 a 3.09,3.09 0 0 1 -1.231,-1.2 3.732,3.732 0 0 1 0,-3.55 c 0.29,-0.51 0.717,-0.928 1.231,-1.207 a 3.606,3.606 0 0 1 1.754,-0.428 3.606,3.606 0 0 1 1.754,0.428 c 0.514,0.28 0.94,0.697 1.23,1.206 a 3.754,3.754 0 0 1 0,3.55 3.09,3.09 0 0 1 -1.23,1.201 3.603,3.603 0 0 1 -1.754,0.426 3.603,3.603 0 0 1 -1.754,-0.426 z m 3.007,-0.748 c 0.372,-0.207 0.68,-0.514 0.888,-0.886 0.223,-0.411 0.335,-0.874 0.324,-1.342 a 2.654,2.654 0 0 0 -0.324,-1.33 2.275,2.275 0 0 0 -0.88,-0.89 2.546,2.546 0 0 0 -1.25,-0.311 c -0.44,-0.007 -0.876,0.1 -1.264,0.309 a 2.272,2.272 0 0 0 -0.896,0.886 2.88,2.88 0 0 0 0,2.678 c 0.208,0.373 0.517,0.68 0.89,0.886 0.387,0.21 0.82,0.315 1.259,0.307 0.437,0.007 0.869,-0.098 1.253,-0.307 z m 5.959,0.748 a 3.09,3.09 0 0 1 -1.231,-1.2 3.732,3.732 0 0 1 0,-3.55 c 0.29,-0.51 0.716,-0.928 1.23,-1.207 a 3.805,3.805 0 0 1 3.519,0 c 0.514,0.28 0.94,0.697 1.231,1.206 a 3.754,3.754 0 0 1 0,3.55 c -0.29,0.509 -0.716,0.925 -1.231,1.201 a 3.827,3.827 0 0 1 -3.518,0 z m 3.006,-0.748 c 0.375,-0.206 0.684,-0.513 0.894,-0.886 a 2.923,2.923 0 0 0 0,-2.672 2.283,2.283 0 0 0 -0.883,-0.89 2.53,2.53 0 0 0 -1.247,-0.311 c -0.442,-0.007 -0.878,0.1 -1.267,0.309 a 2.291,2.291 0 0 0 -0.895,0.886 2.89,2.89 0 0 0 0,2.678 c 0.207,0.373 0.516,0.68 0.89,0.886 a 2.66,2.66 0 0 0 2.508,0 z m 4.512,-5.496 h 2.622 a 2.322,2.322 0 0 1 1.605,0.504 c 0.391,0.388 0.595,0.927 0.557,1.477 0.013,0.437 -0.121,0.866 -0.381,1.217 a 1.894,1.894 0 0 1 -1.083,0.678 l 1.437,2.653 h -0.988 l -1.39,-2.578 h -1.438 v 2.578 h -0.941 v -6.53 z m 2.462,3.146 c 0.355,0.02 0.705,-0.084 0.993,-0.292 0.254,-0.216 0.391,-0.54 0.369,-0.873 a 1.069,1.069 0 0 0 -0.358,-0.908 1.649,1.649 0 0 0 -1.004,-0.271 h -1.52 v 2.344 z m 4.655,-3.146 h 4.3 v 0.813 h -3.347 v 2.065 h 2.5 v 0.794 h -2.5 v 2.074 h 3.347 v 0.794 h -4.3 z m 6.587,0 h 2.1 a 4.016,4.016 0 0 1 1.826,0.39 c 0.5,0.247 0.914,0.638 1.191,1.122 0.286,0.527 0.429,1.12 0.414,1.718 0,1.085 -0.312,1.906 -0.936,2.464 -0.624,0.558 -1.5,0.837 -2.628,0.835 h -1.967 v -6.53 z m 1.96,5.735 c 0.87,0 1.524,-0.215 1.958,-0.645 0.435,-0.43 0.653,-1.05 0.653,-1.86 A 2.243,2.243 0 0 0 36.182,48.746 2.236,2.236 0 0 0 34.374,48.11 h -1.156 v 4.933 l 1.007,0.01 z m 7.395,0.509 a 3.106,3.106 0 0 1 -1.231,-1.2 3.754,3.754 0 0 1 0,-3.55 c 0.29,-0.51 0.717,-0.927 1.231,-1.207 a 3.81,3.81 0 0 1 3.518,0 c 0.514,0.28 0.94,0.697 1.231,1.206 a 3.754,3.754 0 0 1 0,3.55 c -0.289,0.509 -0.716,0.925 -1.23,1.201 a 3.832,3.832 0 0 1 -3.519,0 z m 3.01,-0.748 c 0.373,-0.206 0.682,-0.513 0.89,-0.886 0.225,-0.41 0.338,-0.873 0.327,-1.342 a 2.684,2.684 0 0 0 -0.322,-1.33 2.283,2.283 0 0 0 -0.882,-0.89 2.546,2.546 0 0 0 -1.25,-0.311 2.59,2.59 0 0 0 -1.264,0.309 2.291,2.291 0 0 0 -0.896,0.886 2.89,2.89 0 0 0 0,2.678 c 0.208,0.373 0.517,0.68 0.89,0.886 a 2.66,2.66 0 0 0 2.509,0 H 44.63 Z m 5.956,0.748 a 3.106,3.106 0 0 1 -1.232,-1.2 3.754,3.754 0 0 1 0,-3.55 c 0.291,-0.51 0.717,-0.927 1.232,-1.207 a 3.805,3.805 0 0 1 3.518,0 c 0.514,0.28 0.94,0.697 1.231,1.206 0.599,1.108 0.599,2.443 0,3.55 a 3.09,3.09 0 0 1 -1.231,1.201 3.827,3.827 0 0 1 -3.518,0 z m 3.014,-0.748 c 0.374,-0.206 0.683,-0.513 0.89,-0.886 0.226,-0.41 0.34,-0.873 0.328,-1.342 a 2.684,2.684 0 0 0 -0.322,-1.33 2.283,2.283 0 0 0 -0.882,-0.89 2.546,2.546 0 0 0 -1.25,-0.311 2.59,2.59 0 0 0 -1.264,0.309 2.291,2.291 0 0 0 -0.896,0.886 2.901,2.901 0 0 0 0,2.678 c 0.21,0.373 0.519,0.68 0.893,0.886 a 2.66,2.66 0 0 0 2.509,0 H 53.6 Z m 9.264,-5.496 h 0.95 v 2.802 h 3.407 V 47.32 h 0.95 v 6.529 h -0.95 v -2.925 h -3.408 v 2.925 h -0.95 z m 8.459,5.984 a 2.58,2.58 0 0 1 -0.68,-1.897 v -4.093 h 0.95 v 4.128 c -0.031,0.467 0.14,0.926 0.469,1.258 a 2.116,2.116 0 0 0 2.546,0 c 0.329,-0.333 0.499,-0.791 0.466,-1.258 V 47.32 h 0.952 v 4.092 A 2.57,2.57 0 0 1 75.345,53.31 C 74.891,53.77 74.222,54 73.34,54 72.458,54 71.786,53.769 71.324,53.304 Z m 8.828,-5.182 h -2.027 v -0.813 h 5.012 v 0.813 h -2.025 v 5.727 h -0.96 z m 6.088,5.448 a 3.025,3.025 0 0 1 -1.22,-1.193 3.547,3.547 0 0 1 -0.438,-1.789 3.59,3.59 0 0 1 0.438,-1.802 3.014,3.014 0 0 1 1.22,-1.195 3.743,3.743 0 0 1 1.792,-0.42 3.628,3.628 0 0 1 2.249,0.683 v 0.932 a 3.141,3.141 0 0 0 -2.165,-0.718 2.805,2.805 0 0 0 -1.337,0.309 2.21,2.21 0 0 0 -0.91,0.88 2.912,2.912 0 0 0 0,2.69 c 0.214,0.377 0.532,0.685 0.915,0.886 0.411,0.21 0.868,0.317 1.33,0.309 a 3.88,3.88 0 0 0 1.236,-0.182 2.992,2.992 0 0 0 1.012,-0.585 v 0.924 C 89.801,53.766 89.023,54 88.029,54 a 3.743,3.743 0 0 1 -1.788,-0.431 z m 6.457,-6.25 h 0.956 v 2.802 h 3.404 V 47.32 h 0.95 v 6.529 h -0.95 v -2.925 h -3.404 v 2.925 H 92.7 Z m 7.827,0 h 0.96 v 6.529 h -0.96 z m 4.183,6.572 a 3.492,3.492 0 0 1 -0.89,-0.27 v -0.863 a 4.465,4.465 0 0 0 1.932,0.42 c 0.97,0 1.454,-0.326 1.454,-0.978 a 0.86,0.86 0 0 0 -0.157,-0.542 1.353,1.353 0 0 0 -0.458,-0.36 c -0.2,-0.103 -0.522,-0.244 -0.971,-0.426 a 3.696,3.696 0 0 1 -1.334,-0.813 1.628,1.628 0 0 1 -0.409,-1.13 1.533,1.533 0 0 1 0.27,-0.911 c 0.2,-0.275 0.472,-0.49 0.785,-0.618 0.366,-0.152 0.76,-0.227 1.156,-0.22 0.322,-0.003 0.644,0.025 0.96,0.084 0.29,0.058 0.571,0.149 0.84,0.272 v 0.813 a 3.997,3.997 0 0 0 -1.64,-0.364 1.838,1.838 0 0 0 -1.029,0.242 0.795,0.795 0 0 0 -0.354,0.694 0.874,0.874 0 0 0 0.154,0.517 c 0.123,0.157 0.28,0.285 0.457,0.374 0.204,0.109 0.505,0.244 0.902,0.407 0.362,0.14 0.711,0.312 1.044,0.512 0.518,0.302 0.822,0.87 0.785,1.47 a 1.57,1.57 0 0 1 -0.606,1.316 c -0.406,0.311 -1.003,0.467 -1.792,0.467 a 6.298,6.298 0 0 1 -1.099,-0.093 z m 7.329,-0.328 a 3.09,3.09 0 0 1 -1.231,-1.2 3.754,3.754 0 0 1 0,-3.55 c 0.29,-0.51 0.716,-0.928 1.23,-1.207 a 3.805,3.805 0 0 1 3.519,0 c 0.515,0.28 0.941,0.697 1.231,1.206 0.6,1.108 0.6,2.443 0,3.55 a 3.09,3.09 0 0 1 -1.231,1.201 3.827,3.827 0 0 1 -3.518,0 z m 3.01,-0.748 c 0.372,-0.206 0.68,-0.513 0.89,-0.886 a 2.912,2.912 0 0 0 0,-2.672 2.3,2.3 0 0 0 -0.883,-0.89 2.546,2.546 0 0 0 -1.25,-0.311 2.59,2.59 0 0 0 -1.264,0.309 2.272,2.272 0 0 0 -0.896,0.886 c -0.226,0.408 -0.34,0.87 -0.33,1.336 -0.01,0.468 0.102,0.93 0.325,1.342 0.209,0.373 0.517,0.68 0.89,0.886 0.785,0.42 1.727,0.42 2.512,0 h 0.005 z m 4.508,-5.496 h 0.906 l 3.32,4.922 v -4.922 h 0.961 v 6.529 h -0.914 l -3.32,-4.922 v 4.922 h -0.953 z"
       fill="#4d4d4f"
       id="path16" />
  </g>
</svg>
