<svg id="Layer_1" data-name="Layer 1" xmlns="http://www.w3.org/2000/svg" viewBox="0 0 59.54 45.09"><defs><style>.cls-1{fill:#fff;}.cls-2{fill:#ed1c24;}.cls-3{fill:#221e20;}</style></defs><g id="Layer_2" data-name="Layer 2"><path class="cls-1" d="M59.76,26.35a9.15,9.15,0,0,0-1.17-4.11,9.14,9.14,0,0,0,1.18-4.48,9,9,0,0,0-8.91-9H41.93a2.3,2.3,0,0,0-2.38,2.36v1.67A11.15,11.15,0,0,0,31.09,8.7a11.73,11.73,0,0,0-6.45,2A11.63,11.63,0,0,0,18.2,8.71a11.27,11.27,0,0,0-8.73,4.4V13a4.56,4.56,0,0,0-1.18-2.85,4.62,4.62,0,1,0-6.87,0,4.58,4.58,0,0,0-1.18,3V40.45a7.09,7.09,0,0,0,7,7.09H52.65a7.23,7.23,0,0,0,7.12-7.08V26.35Z" transform="translate(-0.23 -2.46)"/><path class="cls-2" d="M2.6,7.08A2.25,2.25,0,1,1,4.85,9.33,2.24,2.24,0,0,1,2.6,7.08Z" transform="translate(-0.23 -2.46)"/><path class="cls-3" d="M4.85,11.12A2.29,2.29,0,0,0,2.6,13.29V33.37H7.11V13.23A2.28,2.28,0,0,0,4.85,11.12Z" transform="translate(-0.23 -2.46)"/><path class="cls-3" d="M31.09,11.09A9.11,9.11,0,0,0,25.48,13l-.84.65L23.8,13a9.1,9.1,0,0,0-5.6-1.89,8.78,8.78,0,0,0-8.65,8.48v13.8h4.5V19.63a4,4,0,0,1,4.15-4,4.14,4.14,0,0,1,4.24,4V31a2.08,2.08,0,0,0,2.18,2.13A2.19,2.19,0,0,0,26.8,31V19.62a4.22,4.22,0,0,1,8.43,0V33.37h4.5V19.57A8.79,8.79,0,0,0,31.09,11.09Z" transform="translate(-0.23 -2.46)"/><path class="cls-3" d="M50.75,24.36a2.34,2.34,0,0,1,0,4.67H41.9v4.33h9a6.6,6.6,0,0,0,6.52-6.64,6.76,6.76,0,0,0-1.29-3.95l-.39-.53.38-.51a6.76,6.76,0,0,0,1.3-4,6.59,6.59,0,0,0-6.53-6.64H41.9v4.3h8.85a2.34,2.34,0,0,1,0,4.67H46a2.14,2.14,0,0,0,0,4.27Z" transform="translate(-0.23 -2.46)"/><path class="cls-2" d="M37.54,39.06a1.4,1.4,0,1,0,1.4,1.4,1.4,1.4,0,0,0-1.4-1.4Z" transform="translate(-0.23 -2.46)"/><path class="cls-2" d="M52.65,35.74a4.72,4.72,0,0,0-3.79,1.89,4.71,4.71,0,0,0-6.61-.94,4.65,4.65,0,0,0-.94.94A4.69,4.69,0,0,0,40,36.45v4a2.48,2.48,0,1,1-1.19-2.12l.1.07V36a4.72,4.72,0,0,0-5.17,1.68,4.71,4.71,0,0,0-6.61-.94,4.46,4.46,0,0,0-.95.94,4.72,4.72,0,0,0-7.55,0A4.71,4.71,0,0,0,12,36.69a4.19,4.19,0,0,0-.94.94,4.72,4.72,0,1,0,0,5.66,4.72,4.72,0,0,0,7.55,0,4.72,4.72,0,0,0,6.61,1,4.46,4.46,0,0,0,.94-1,4.72,4.72,0,0,0,7.56,0,4.72,4.72,0,0,0,6.61,1,4.46,4.46,0,0,0,.94-1,4.72,4.72,0,0,0,7.56,0,4.72,4.72,0,1,0,3.78-7.55Z" transform="translate(-0.23 -2.46)"/><path class="cls-1" d="M38.83,38.34a2.48,2.48,0,1,0,.83,3.42,2.57,2.57,0,0,0,.36-1.3v-4a4.89,4.89,0,0,0-1.09-.5v2.46Zm-1.29,3.52a1.4,1.4,0,1,1,1.4-1.4,1.4,1.4,0,0,1-1.4,1.4Z" transform="translate(-0.23 -2.46)"/><path class="cls-1" d="M45.09,42.94a2.49,2.49,0,1,1,2.49-2.48h0A2.48,2.48,0,0,1,45.09,42.94Zm0-3.88a1.4,1.4,0,1,0,1.4,1.4A1.4,1.4,0,0,0,45.09,39.06Z" transform="translate(-0.23 -2.46)"/><path class="cls-1" d="M52.65,42.94a2.49,2.49,0,1,1,2.48-2.48h0A2.48,2.48,0,0,1,52.65,42.94Zm0-3.88a1.4,1.4,0,1,0,1.4,1.4h0A1.4,1.4,0,0,0,52.65,39.06Z" transform="translate(-0.23 -2.46)"/><path class="cls-1" d="M14.88,42.94a2.49,2.49,0,1,1,2.49-2.48,2.49,2.49,0,0,1-2.49,2.48Zm0-3.88a1.4,1.4,0,1,0,1.4,1.4,1.4,1.4,0,0,0-1.4-1.4Z" transform="translate(-0.23 -2.46)"/><path class="cls-1" d="M7.32,42.94A2.49,2.49,0,1,1,9.8,40.45h0A2.48,2.48,0,0,1,7.32,42.94Zm0-3.88a1.4,1.4,0,1,0,1.4,1.4h0A1.4,1.4,0,0,0,7.32,39.06Z" transform="translate(-0.23 -2.46)"/><path class="cls-1" d="M30.07,42.94h-.36a2.49,2.49,0,1,1,2.76-2.47,1.88,1.88,0,0,1,0,.47H28.68l.07.18a1.38,1.38,0,0,0,1,.72,2.31,2.31,0,0,0,.37,0h.06a1.45,1.45,0,0,0,.94-.34l0,0,1,.54,0,.05a2.47,2.47,0,0,1-1.93.86ZM30,39.06a1.39,1.39,0,0,0-1.3.87v0h2.6v0A1.38,1.38,0,0,0,30,39.06Z" transform="translate(-0.23 -2.46)"/><path class="cls-1" d="M20.09,42.82v-2.5a2.49,2.49,0,0,1,4.71-1l-1,.51a1.4,1.4,0,0,0-2.66.6v2.36Z" transform="translate(-0.23 -2.46)"/></g></svg>